# xmcd
# Track frame offsets:
# 183
# 11368
# 20080
# 31528
# 44303
# 54883
# 66460
# 78590
# 90185
# 101915
#
# Disc length: 1515 seconds
# Revision: 0
# Processed by: cddbd v1.4PL0 Copyright (c) Steve Scherf et al.
# Submitted via: VisiTrax 2.9.5.181 - For more info visit www.synapsa.com
#
DISCID=6f05e90a
DTITLE=Patsy Cline - Early Memories Volume 2  (Sun Collector Classics)
DYEAR=1983
DGENRE=Country Compilation
TTITLE0=Just Out Of Reach
TTITLE1=Ain't No Wheels On This Ship
TTITLE2=Stop The World (And Let Me Off)
TTITLE3=Just A Closer Walk With Thee
TTITLE4=Too Many Secrets
TTITLE5=Never No More
TTITLE6=Walkin' After Midnight
TTITLE7=In Care Of The Blues
TTITLE8=I've Loved And Lost Again
TTITLE9=Today Tomorrow And Forever
EXTD=PolyGram 841 566-2
EXTT0=
EXTT1=
EXTT2=
EXTT3=
EXTT4=
EXTT5=
EXTT6=
EXTT7=
EXTT8=
EXTT9=
PLAYORDER=
